<svg width="113" height="38" viewBox="0 0 113 38" fill="none" xmlns="http://www.w3.org/2000/svg">
<g filter="url(#filter0_d_3_2)">
<rect x="4" width="109" height="34" fill="white" shape-rendering="crispEdges"/>
<rect x="4.5" y="0.5" width="108" height="33" stroke="black" shape-rendering="crispEdges"/>
<path d="M23.0059 12.3926L22.7891 13.418H19.8887L18.2773 21H17.0938L18.7051 13.418H15.8047L16.0215 12.3926H23.0059ZM30.6934 13.623C31.1035 14.3848 31.1816 15.3594 30.9277 16.5469C30.6543 17.832 30.1016 18.9004 29.2695 19.752C28.2891 20.752 27.0898 21.252 25.6719 21.252C24.3477 21.252 23.4004 20.8145 22.8301 19.9395C22.334 19.0957 22.2227 18.0293 22.4961 16.7402C22.7422 15.5762 23.2422 14.5801 23.9961 13.752C24.9648 12.6895 26.1758 12.1582 27.6289 12.1582C29.1484 12.1582 30.1699 12.6465 30.6934 13.623ZM29.7266 16.5645C29.9414 15.5527 29.8496 14.7383 29.4512 14.1211C29.0566 13.5039 28.4004 13.1953 27.4824 13.1953C26.5918 13.1953 25.7988 13.502 25.1035 14.1152C24.4121 14.7246 23.9395 15.625 23.6855 16.8164C23.4824 17.7695 23.5527 18.5742 23.8965 19.2305C24.2402 19.8828 24.9531 20.209 26.0352 20.209C27.0625 20.209 27.8828 19.8418 28.4961 19.1074C29.1133 18.3691 29.5234 17.5215 29.7266 16.5645Z" fill="black"/>
<path d="M39.4297 20.0039C39.8242 20.0039 40.1562 19.9629 40.4258 19.8809C40.9102 19.7285 41.3438 19.4355 41.7266 19.002C42.0312 18.6543 42.291 18.209 42.5059 17.666C42.6348 17.3418 42.7285 17.041 42.7871 16.7637C43.0137 15.6973 42.9766 14.8691 42.6758 14.2793C42.3789 13.6895 41.7598 13.3945 40.8184 13.3945H38.75L37.3496 20.0039H39.4297ZM37.7949 12.3926H41.2812C42.4648 12.3926 43.293 12.8125 43.7656 13.6523C44.1875 14.4102 44.2715 15.3809 44.0176 16.5645C43.8262 17.4785 43.4785 18.3047 42.9746 19.043C42.0957 20.3477 40.918 21 39.4414 21H35.9668L37.7949 12.3926ZM53.2402 13.623C53.6504 14.3848 53.7285 15.3594 53.4746 16.5469C53.2012 17.832 52.6484 18.9004 51.8164 19.752C50.8359 20.752 49.6367 21.252 48.2188 21.252C46.8945 21.252 45.9473 20.8145 45.377 19.9395C44.8809 19.0957 44.7695 18.0293 45.043 16.7402C45.2891 15.5762 45.7891 14.5801 46.543 13.752C47.5117 12.6895 48.7227 12.1582 50.1758 12.1582C51.6953 12.1582 52.7168 12.6465 53.2402 13.623ZM52.2734 16.5645C52.4883 15.5527 52.3965 14.7383 51.998 14.1211C51.6035 13.5039 50.9473 13.1953 50.0293 13.1953C49.1387 13.1953 48.3457 13.502 47.6504 14.1152C46.959 14.7246 46.4863 15.625 46.2324 16.8164C46.0293 17.7695 46.0996 18.5742 46.4434 19.2305C46.7871 19.8828 47.5 20.209 48.582 20.209C49.6094 20.209 50.4297 19.8418 51.043 19.1074C51.6602 18.3691 52.0703 17.5215 52.2734 16.5645Z" fill="black"/>
<path d="M61.0059 12.3926H62.1836L60.3555 21H59.1777L61.0059 12.3926ZM70.3457 12.3926L70.1289 13.418H67.2285L65.6172 21H64.4336L66.0449 13.418H63.1445L63.3613 12.3926H70.3457Z" fill="black"/>
<path d="M80.8984 21H79.0938L75.5664 14.8652V21H73.8848V12.3633H75.7773L79.2168 18.3926V12.3633H80.8984V21ZM86.4062 21.2402C85.1719 21.2402 84.2285 20.9043 83.5762 20.2324C82.7012 19.4082 82.2637 18.2207 82.2637 16.6699C82.2637 15.0879 82.7012 13.9004 83.5762 13.1074C84.2285 12.4355 85.1719 12.0996 86.4062 12.0996C87.6406 12.0996 88.584 12.4355 89.2363 13.1074C90.1074 13.9004 90.543 15.0879 90.543 16.6699C90.543 18.2207 90.1074 19.4082 89.2363 20.2324C88.584 20.9043 87.6406 21.2402 86.4062 21.2402ZM88.1113 18.9199C88.5293 18.3926 88.7383 17.6426 88.7383 16.6699C88.7383 15.7012 88.5273 14.9531 88.1055 14.4258C87.6875 13.8945 87.1211 13.6289 86.4062 13.6289C85.6914 13.6289 85.1211 13.8926 84.6953 14.4199C84.2695 14.9473 84.0566 15.6973 84.0566 16.6699C84.0566 17.6426 84.2695 18.3926 84.6953 18.9199C85.1211 19.4473 85.6914 19.7109 86.4062 19.7109C87.1211 19.7109 87.6895 19.4473 88.1113 18.9199ZM100.328 12.3633H102.162L99.7305 21H98.0078L96.9648 15.9492L96.6602 14.2793L96.3555 15.9492L95.3125 21H93.6367L91.1875 12.3633H93.1035L94.2461 17.3086L94.4922 18.6855L94.7441 17.3379L95.7168 12.3633H97.6211L98.6465 17.3086L98.9102 18.6855L99.1738 17.3613L100.328 12.3633Z" fill="black"/>
</g>
<defs>
<filter id="filter0_d_3_2" x="0" y="0" width="113" height="38" filterUnits="userSpaceOnUse" color-interpolation-filters="sRGB">
<feFlood flood-opacity="0" result="BackgroundImageFix"/>
<feColorMatrix in="SourceAlpha" type="matrix" values="0 0 0 0 0 0 0 0 0 0 0 0 0 0 0 0 0 0 127 0" result="hardAlpha"/>
<feOffset dx="-4" dy="4"/>
<feComposite in2="hardAlpha" operator="out"/>
<feColorMatrix type="matrix" values="0 0 0 0 0 0 0 0 0 0 0 0 0 0 0 0 0 0 1 0"/>
<feBlend mode="normal" in2="BackgroundImageFix" result="effect1_dropShadow_3_2"/>
<feBlend mode="normal" in="SourceGraphic" in2="effect1_dropShadow_3_2" result="shape"/>
</filter>
</defs>
</svg>
